<?xml version="1.0" encoding="utf-8"?>
<!DOCTYPE svg PUBLIC "-//W3C//DTD SVG 1.1//EN" "http://www.w3.org/Graphics/SVG/1.1/DTD/svg11.dtd">
<svg version="1.1" id="Layer_1" xmlns="http://www.w3.org/2000/svg" xmlns:xlink="http://www.w3.org/1999/xlink" x="0px" y="0px"
	 width="841.89px" height="595.276px" viewBox="0 0 841.89 595.276" enable-background="new 0 0 841.89 595.276"
	 xml:space="preserve">
<g>
	<g>
			<ellipse transform="matrix(-0.9997 0.0264 -0.0264 -0.9997 1019.7183 946.861)" opacity="0.08" cx="503.615" cy="480.155" rx="166.114" ry="43.412"/>
	</g>
	<path opacity="0.9" fill="#F0F9FB" d="M426.615,69.134c-24.187-1.101-62.229,57.86-69.137,80.688
		c-6.067,20.048,0.959,95.943,3.042,111.733c13.915-9.477,33.155-21.119,52.695-26.204c5.832-10.453,11.774-21.577,14.284-27.769
		c5.623-13.883,11.219-40.14,13.563-58.354c2.162-16.774,4.574-77.015-12.791-79.92C427.726,69.217,427.175,69.16,426.615,69.134"/>
	<path d="M459.492,395.491c0,0,4.926,80.992-6.639,99.486c-1.322,2.113-6.381,2.953-7.475,0.723
		C435.714,475.989,459.492,395.491,459.492,395.491z"/>
	<path d="M588.25,372.225c0,0,35.188,82.131,29.857,102.561c-0.611,2.332-5.156,4.686-6.875,3.004
		C596.041,462.922,588.25,372.225,588.25,372.225z"/>
	<path d="M547.408,394.264c0,0,27.262,68.449,21.404,87.465c-0.67,2.17-5.252,4.404-6.918,2.865
		C547.183,470.987,547.408,394.264,547.408,394.264z"/>
	<path d="M423.421,373.356c0,0-8.399,93.51-22.913,113.271c-1.658,2.258-6.817,2.586-7.537-0.109
		C386.611,462.7,423.421,373.356,423.421,373.356z"/>
	<g>
		<path fill="#809EAD" d="M265.901,375.67c0,0-14.066,42.699-14.038,57.619c0.022,12.475,7.63,47.799,7.63,47.799
			s-50.127-16.713-51.175,11.479c-1.121,30.131,44.005,32.445,61.404,36.436c19.614,4.498,61.179,13.525,66.839-3.762
			c6.979-21.303-23.089-30.084-32.95-41.34c-4.474-5.109-11.257-19.352-12.629-26.006c-2.972-14.406,0.282-58.848,0.282-58.848
			L265.901,375.67z"/>
		<g>
			<path fill="#89A9B9" d="M216.898,501.967c1.05-28.193,51.176-11.479,51.176-11.479s-7.607-35.324-7.63-47.799
				c-0.027-14.92,14.037-57.621,14.037-57.621l16.687,15.381c0.061-0.889,0.097-1.402,0.097-1.402l-25.363-23.377
				c0,0-14.065,42.699-14.037,57.619c0.021,12.473,7.629,47.799,7.629,47.799s-50.127-16.715-51.175,11.477
				c-0.366,9.875,4.247,16.746,11.211,21.686C217.698,510.768,216.723,506.713,216.898,501.967z"/>
		</g>
		<g>
			<path fill="#718C9A" d="M329.942,503.879c2.087,4.051,2.723,8.666,0.945,14.096c-5.662,17.285-47.224,8.26-66.841,3.762
				c-12.575-2.885-39.623-4.902-53.238-17.168c9.59,18.869,44.183,21.053,58.914,24.434c19.615,4.498,61.178,13.523,66.839-3.762
				C339.501,516.274,335.863,509.528,329.942,503.879z"/>
		</g>
		<path d="M263.104,373.727c-4.452,13.563-8.467,27.316-11.621,41.24c-3.723,16.439-1.238,31.283,1.801,47.695
			c1.046,5.645,2.174,11.275,3.371,16.889c-0.354-1.664,3.239-0.633-0.726-1.793c-2.648-0.775-5.332-1.418-8.024-2.014
			c-11.502-2.539-25.827-4.615-36.218,2.275c-11.223,7.438-5.895,25.523,1.848,33.311c11.161,11.23,27.492,14.783,42.523,17.527
			c16.01,2.926,31.872,6.949,48.078,8.666c13.348,1.414,33.491,2.148,36.171-14.719c2.419-15.217-15.566-25.604-25.991-32.529
			c-18.771-12.469-21.884-33.346-21.761-54.18c0.057-9.57,0.526-19.143,1.088-28.695c0.19-3.217,1.428-7.15-1.236-9.607
			c-8.454-7.791-16.908-15.586-25.362-23.377c-3.084-2.844-5.365-0.332-2.287,2.508c8.453,7.789,16.908,15.584,25.363,23.377
			c-0.552-1.064-1.103-2.131-1.654-3.195c-1.832,25.344-5.755,53.545,6.616,76.752c7.649,14.354,19.717,19.58,31.828,29.561
			c7.297,6.016,11.312,16.852,3.805,24.406c-5.911,5.945-17.596,5.102-25.161,4.736c-15.275-0.742-29.979-5.029-44.956-7.666
			c-14.969-2.639-34.726-4.561-45.325-16.775c-5.397-6.219-5.748-17.156-0.543-23.486c4.078-4.959,11.881-5.676,17.776-5.793
			c9.37-0.186,19.124,1.881,28.006,4.803c0.85,0.279,2.036-0.006,1.791-1.15c-3.514-16.387-9.05-34.984-7.341-51.813
			c1.821-17.934,8.133-36.004,13.735-53.068C269.406,375.452,263.916,371.254,263.104,373.727z"/>
	</g>
	<path d="M378.123,253.229c0.488-0.142-5.639-38.057-2.88-82.124c3.676-23.696,15.239-42.349,24.932-59.461
		c10.475-16.654,20.348-31.984,26.788-38.674c2.951-3.062,6.723-3.046,5.057,0.782c-3.658,8.496-12.446,24.557-22.755,41.265
		c-9.598,16.777-21.866,36.024-26.62,55.98C376.855,213.636,378.636,253.363,378.123,253.229z"/>
	<path d="M360.444,260.92c0.06-0.033-3.467-20.903-6.675-53.835c-0.989-16.666-4.229-35.537-0.136-58.324
		c7.417-21.21,19.82-40.862,35.289-59.628c8.132-8.96,16.467-18.53,29.801-23.479c3.396-1.157,7.212-1.647,11.474-0.744
		c4.967,1.283,7.631,5.003,9.469,7.999c3.523,6.337,4.688,12.559,5.813,18.686c3.252,24.415,2.379,47.943-1.529,69.666
		c-4.074,21.254-8.559,41.12-17.184,56.621c-8.208,15.024-15.849,26.81-21.554,35.116c-5.256,7.555-10.336,9.977-6.402,1.786
		c8.086-18.841,29.454-48.207,35.099-91.271c4.145-20.857,5.281-44.16,3.1-67.448c-1.434-10.498-3.832-26.074-13.578-23.139
		c-10.198,2.118-19.528,11.04-27.463,19.299c-15.718,17.408-29.118,36.976-37.099,56.604c-5.3,20.464-2.781,40.83-2.571,57.331
		C358.037,239.551,360.507,260.898,360.444,260.92z"/>
	<path fill="#809EAD" d="M325.649,323.78c-2.326,51.033,64.896,85.547,149.585,89.406c84.688,3.861,155.227-34.379,157.553-85.412
		c2.328-51.033-64.439-95.534-149.127-99.395c-84.688-3.862-155.501,40.372-157.828,91.406"/>
	<path fill="#718C9A" d="M631.347,312.35c0.016,1.113,0.039,2.223-0.012,3.344c-2.324,51.033-72.74,83.277-157.428,79.416
		c-76.048-3.469-138.099-25.66-148.269-68.328c0.401,49.375,66.585,82.619,149.595,86.404
		c84.688,3.861,155.227-34.381,157.553-85.414C633.027,322.549,632.503,317.401,631.347,312.35z"/>
	<path fill="#89A9B9" d="M477.029,242.091c84.688,3.86,151.453,48.362,149.129,99.396c-0.252,5.5-1.342,10.84-3.109,16.006
		c5.826-9.195,9.258-19.176,9.738-29.719c2.328-51.032-64.439-95.534-149.127-99.395c-74.989-3.419-139.058,30.878-154.375,74.207
		C351.967,265.992,410.157,239.042,477.029,242.091z"/>
	<path d="M328.583,313.907c0.47,0.176-0.454-9.732,7.332-24.47c7.714-14.639,26.397-31.771,54.004-42.749
		c27.366-11.35,62.996-16.843,101.164-13.739c37.635,3.345,80.191,14.518,111.607,42.563c15.535,13.619,26.654,33.242,25.104,53.527
		c-1.363,20.389-15.635,37.947-32.529,49.727c-34.773,23.803-78.238,30.76-116.492,29.811
		c-77.735-1.066-140.243-41.412-148.937-77.705c-3.948-15.465-5.566-25.391-6.233-7.787c0.914,19.529,16.053,45.316,43.333,62.756
		c26.854,17.951,63.7,29.607,104.167,31.904c40.146,2.102,85.729-3.795,124.402-28.236c18.783-12.105,36.178-30.744,39.852-54.539
		c4.342-23.967-8.607-46.754-24.5-61.979c-33.6-30.548-77.732-41.757-116.715-44.796c-39.469-2.917-76.015,3.538-103.996,15.613
		c-28.276,11.688-47.112,29.805-54.734,44.957C327.788,304.077,329.072,314.077,328.583,313.907"/>
	<linearGradient id="SVGID_1_" gradientUnits="userSpaceOnUse" x1="487.3003" y1="291.8779" x2="558.6663" y2="60.4368">
		<stop  offset="0.0173" style="stop-color:#809EAD"/>
		<stop  offset="0.2679" style="stop-color:#F0F9FB;stop-opacity:0.9"/>
	</linearGradient>
	<path fill="url(#SVGID_1_)" d="M565.826,61.949c-0.928-0.188-1.871-0.303-2.838-0.347c-31.832-1.443-83.889,73.543-93.941,103.045
		c-4.4,12.918-6.863,38.386-6,62.972c0.051,1.481,0.109,2.957,0.17,4.429c1.229,29.646,3.711,57.014,3.711,57.014l50.992,22.215
		c0,0,28.502-43.053,38.746-63.541c0.713-1.431,1.342-2.749,1.871-3.93c0.258-0.58,0.516-1.176,0.777-1.789
		c7.795-18.414,15.924-51.271,19.709-74.356C582.626,145.692,588.537,66.56,565.826,61.949z"/>

		<ellipse transform="matrix(0.782 0.6233 -0.6233 0.782 257.9381 -85.8602)" fill="#EBEBEC" cx="251.707" cy="325.795" rx="70.936" ry="80.425"/>
	<path fill="#FFFFFF" d="M197.824,290.664c27.689-34.733,74.967-43.097,105.602-18.683c11.617,9.262,19.164,21.912,22.559,35.938
		c-1.973-17.598-10.066-33.795-24.146-45.019c-30.635-24.415-77.912-16.052-105.602,18.682
		c-17.183,21.562-22.77,48.216-17.214,71.173C176.706,332.065,182.864,309.436,197.824,290.664z"/>
	<path fill="#DADBDC" d="M311.72,358.204c-27.685,34.732-74.967,43.1-105.601,18.678c-22.523-17.951-29.756-48.623-21.018-77.413
		c-15.004,31.86-9.165,68.782,16.476,89.218c30.634,24.422,77.916,16.055,105.601-18.676c7.33-9.197,12.532-19.324,15.677-29.693
		C319.932,346.524,316.234,352.54,311.72,358.204z"/>
	<path d="M309.053,371.502c-1.376,0.049,19.937-18.123,20.515-57.291c0.024-18.757-8.289-42.801-29.392-57.213
		c-20.531-14.976-51.325-16.067-76.026-3.658c-24.925,12.174-44.104,36.461-49.962,63.801c-6.274,27.135,2.69,57.328,22.937,73.609
		c19.877,16.963,46.111,18.42,64.63,13.025c19.078-5.342,31.997-16.141,39.407-24.607c6.701-8.094,7.299-13.871,0.379-6.908
		c-7.719,7.469-19.898,17.252-37.181,22.457c-16.857,5.281-39.841,5.117-58.085-8.459c-18.551-12.873-28.509-38.816-24.171-63.979
		c3.723-25.155,20.423-48.953,42.986-61.423c22.331-13.049,50.938-13.477,71.068-0.813c20.49,12.444,30.102,34.921,30.899,53.432
		C328.35,352.022,307.708,371.676,309.053,371.502z"/>
	<path fill="#EBEBEC" d="M411.463,321.86c14.14,46.094-9.352,93.484-50.009,105.959c-40.655,12.471-85.079-14.787-99.221-60.879
		c-14.142-46.1,7.352-93.578,48.008-106.053C350.897,248.415,398.985,274.195,411.463,321.86z"/>
	<path fill="#DADBDC" d="M413.303,340.893c-0.91,34.676-20.87,65.248-52.301,74.893c-40.657,12.473-85.082-14.785-99.225-60.879
		c-1.957-6.383-3.209-12.789-3.844-19.129c-0.269,10.176,1.087,20.701,4.297,31.162c14.142,46.094,58.567,73.352,99.224,60.879
		C396.482,417.071,417.26,380.336,413.303,340.893z"/>
	<path fill="#FFFFFF" d="M267.816,376.204c-14.142-46.098,7.352-93.577,48.009-106.053c31.536-9.673,66.33,3.623,86.18,32.314
		c-18.305-34.999-57.01-52.239-91.763-41.578c-40.657,12.476-62.15,59.953-48.009,106.053c2.984,9.73,7.332,18.607,12.694,26.463
		C272.087,388.026,269.682,382.284,267.816,376.204z"/>
	<path d="M411.792,321.055c-0.795,1.262-4.041-28.917-38.705-53.359c-16.754-11.483-43.306-18.729-69.049-8.685
		c-25.898,9.188-45.67,36.009-49.679,65.649c-4.35,29.693,5.625,61.666,26.454,83.598c20.392,22.178,52.796,32.613,79.673,24.506
		c27.265-7.359,44.604-29.857,51.142-49.689c6.92-20.295,5.217-38.453,2.234-50.277c-3.084-10.953-7.695-15.117-5.645-4.643
		c2.02,11.5,3.361,28.459-2.572,47.211c-5.6,18.412-19.901,39.016-43.378,47.07c-23.033,8.766-52.518,1.711-72.439-17.684
		c-20.3-18.842-31.361-48.477-28.655-76.391c2.045-28.06,19.277-53.964,43.004-64.203c23.751-10.696,49.768-5.475,66.808,5.182
		C406.243,291.866,411.118,322.364,411.792,321.055z"/>
	<path d="M489.98,287.887c0.939-0.134-4.764-47.789,4.473-102.382c19.867-52.541,53.699-102.731,68.715-120.064
		c3.654-3.788,7.744-4.07,5.34,0.522c-9.568,20.651-44.736,71.899-66.66,120.186C489.712,238.264,490.908,288.208,489.98,287.887z"
		/>
	<path d="M466.927,289.061c0.137-0.044-3.678-26.576-5.383-68.456c0.422-20.334-3.711-47.094,10.443-72.432
		c12.709-24.218,29.41-48.68,51.383-70.189c11.266-9.676,23.635-22.493,43.377-20.738c11.496,3.58,14.109,13.758,16.457,20.958
		c2.207,7.841,2.953,15.586,3.586,23.264c1.68,30.479-0.674,60.555-7.094,87.328c-6.229,26.504-13.092,51.527-24.873,70.249
		c-10.996,18.556-21.004,33.261-28.406,43.612c-6.807,9.424-12.641,12.715-7.131,2.631c11.068-23.177,40.346-59.52,50.01-113.691
		c6.568-26.386,9.605-55.555,8.734-85.556c-0.898-13.961-1.611-32.1-10.793-39.717c-11.012-4.875-26.305,5.982-36.754,15.028
		c-22.174,19.929-39.785,44.076-53.227,67.467c-14.893,23.345-12.09,50.175-13.141,70.813
		C464.302,261.955,467.072,289.035,466.927,289.061z"/>
	<circle cx="335.156" cy="352.839" r="24.48"/>
	<circle cx="226.276" cy="331.669" r="20.735"/>
</g>
</svg>
